<!DOCTYPE svg PUBLIC "-//W3C//DTD SVG 1.1//EN" "http://www.w3.org/Graphics/SVG/1.1/DTD/svg11.dtd">
<!-- Uploaded to: SVG Repo, www.svgrepo.com, Transformed by: SVG Repo Mixer Tools -->
<svg width="800px" height="800px" viewBox="-102.4 -102.4 1228.80 1228.80" xmlns="http://www.w3.org/2000/svg" fill="#e2d4bb" stroke="#e2d4bb" stroke-width="21.503999999999998">
<g id="SVGRepo_bgCarrier" stroke-width="0" transform="translate(0,0), scale(1)">
<rect x="-102.4" y="-102.4" width="1228.80" height="1228.80" rx="614.4" fill="#e2d4bb" strokewidth="0"/>
</g>
<g id="SVGRepo_tracerCarrier" stroke-linecap="round" stroke-linejoin="round" stroke="#CCCCCC" stroke-width="6.144"/>
<g id="SVGRepo_iconCarrier">
<path fill="#000000" d="M832 384H576V128H192v768h640V384zm-26.496-64L640 154.496V320h165.504zM160 64h480l256 256v608a32 32 0 0 1-32 32H160a32 32 0 0 1-32-32V96a32 32 0 0 1 32-32zm160 448h384v64H320v-64zm0-192h160v64H320v-64zm0 384h384v64H320v-64z"/>
</g>
</svg>